<?xml version="1.0" standalone="no"?>
<!DOCTYPE svg PUBLIC "-//W3C//DTD SVG 20010904//EN"
 "http://www.w3.org/TR/2001/REC-SVG-20010904/DTD/svg10.dtd">
<svg version="1.0" xmlns="http://www.w3.org/2000/svg"
 width="250.000000pt" height="250.000000pt" viewBox="0 0 250.000000 250.000000"
 preserveAspectRatio="xMidYMid meet">
<metadata>
Created by potrace 1.11, written by Peter Selinger 2001-2013
</metadata>
<g transform="translate(0.000000,250.000000) scale(0.100000,-0.100000)"
fill="#000000" stroke="none">
<path d="M1211 1568 c-1 -4 4 -19 10 -34 5 -16 12 -45 14 -67 3 -32 0 -40 -21
-49 -15 -7 -21 -15 -15 -22 11 -14 -5 -59 -18 -51 -5 3 -12 1 -16 -5 -3 -5
-24 -10 -46 -10 -24 0 -38 4 -34 10 3 6 1 10 -4 10 -6 0 -11 -4 -11 -10 0 -6
-30 -10 -69 -10 -58 0 -70 3 -74 18 -4 16 -5 16 -6 0 -1 -14 -10 -18 -41 -18
-35 0 -40 -3 -40 -23 0 -23 -2 -24 -90 -24 -71 0 -90 3 -90 14 0 8 -5 11 -10
8 -6 -4 -8 -10 -5 -15 3 -5 -26 -8 -65 -8 -66 1 -75 5 -71 31 1 5 -3 6 -9 2
-5 -3 -10 -12 -10 -19 0 -9 -19 -13 -66 -14 -58 -1 -66 2 -74 21 l-9 22 0 -22
c-1 -21 -5 -22 -71 -21 -64 1 -70 3 -71 22 -1 20 -1 21 -7 1 -8 -24 -32 -31
-32 -10 0 10 -10 15 -30 15 -16 0 -30 5 -30 10 0 6 5 10 12 10 9 0 9 3 1 11
-11 11 -53 -7 -53 -23 0 -5 -14 -8 -30 -8 l-30 0 2 -192 3 -193 460 0 460 0 5
130 5 130 30 0 30 0 1 -121 c1 -116 7 -150 23 -140 4 3 7 61 6 130 0 95 3 126
12 127 51 5 48 12 51 -123 1 -74 7 -128 12 -128 6 0 13 -1 17 -2 4 -2 7 55 8
126 l0 130 30 0 30 0 2 -105 c1 -57 2 -116 2 -131 1 -21 5 -26 17 -21 12 4 15
22 14 87 -3 176 -3 173 28 170 15 -1 29 -2 32 -3 3 -1 5 -55 5 -122 0 -115 5
-152 21 -136 4 4 7 63 7 132 -1 87 3 125 11 126 55 5 51 14 56 -125 3 -89 9
-131 17 -133 9 -3 13 29 15 129 3 143 1 137 56 129 4 0 7 -56 6 -123 0 -68 1
-126 3 -130 2 -4 9 -5 16 -2 10 3 13 36 12 125 0 66 2 124 5 129 3 5 14 7 25
5 11 -2 23 -4 28 -4 4 -1 7 -58 7 -129 l0 -127 465 0 465 0 0 192 0 193 -32 0
c-17 0 -28 3 -25 7 7 6 -37 33 -54 33 -6 0 -5 -9 1 -20 10 -18 8 -20 -20 -20
-20 0 -30 -5 -30 -15 0 -25 -30 -17 -31 8 0 22 0 22 -9 1 -7 -18 -17 -21 -70
-22 -53 0 -62 3 -69 21 l-8 21 -5 -21 c-5 -18 -13 -21 -72 -21 -62 0 -72 5
-67 31 1 5 -3 6 -9 2 -5 -3 -10 -12 -10 -19 0 -10 -18 -14 -64 -14 -56 0 -65
3 -74 21 l-11 22 0 -22 c-1 -22 -4 -22 -88 -20 -83 2 -88 3 -91 25 -3 18 -10
22 -42 22 -28 0 -40 5 -43 18 -4 16 -5 16 -6 0 -1 -15 -11 -18 -71 -18 -40 0
-70 4 -70 10 0 6 -5 10 -11 10 -5 0 -7 -4 -4 -10 4 -6 -12 -10 -39 -10 -26 0
-46 5 -46 11 0 5 -4 8 -9 5 -13 -9 -33 20 -29 43 2 11 -5 26 -14 33 -19 14
-31 75 -17 84 5 3 9 12 9 20 0 11 -4 13 -17 5 -14 -7 -20 -4 -30 17 -6 15 -12
24 -12 20z m-1113 -367 c8 -5 12 -23 10 -47 -3 -39 -6 -41 -48 -35 -15 2 -12
78 3 84 18 8 21 8 35 -2z m198 -1 c6 -6 8 -29 5 -53 -6 -39 -8 -42 -36 -42
-28 0 -30 3 -31 40 -1 22 3 46 8 53 13 15 40 16 54 2z m152 -3 c6 -7 10 -30 8
-52 -2 -37 -4 -40 -31 -40 -28 0 -30 3 -33 39 -2 21 -1 44 2 52 7 17 40 18 54
1z m160 -43 l3 -51 -34 1 c-34 1 -35 2 -34 46 0 48 10 62 42 58 17 -3 21 -12
23 -54z m147 48 c8 -6 11 -47 6 -87 -1 -9 -32 -12 -63 -6 -7 1 0 79 8 93 6 10
36 10 49 0z m1044 -14 c6 -18 7 -51 2 -78 -2 -10 -61 -6 -62 5 -5 44 -3 81 6
87 20 15 46 8 54 -14z m152 20 c8 -30 8 -98 0 -99 -54 -6 -56 -4 -59 35 -4 52
3 66 33 66 14 0 25 -1 26 -2z m157 -53 c3 -50 3 -50 -28 -51 -16 -1 -31 1 -31
5 -7 31 -5 78 3 89 6 7 21 12 32 10 18 -3 21 -11 24 -53z m149 47 c15 -10 15
-92 -1 -93 -6 0 -21 -2 -33 -3 -21 -2 -23 2 -23 44 0 26 3 50 7 53 9 9 35 9
50 -1z m177 2 c21 -8 22 -80 1 -88 -29 -11 -45 5 -45 44 0 21 6 41 13 43 6 3
13 6 14 6 1 1 8 -2 17 -5z m-2134 -169 c10 -50 1 -65 -34 -65 -31 0 -33 2 -33
38 -2 55 3 64 34 60 22 -2 29 -9 33 -33z m148 23 c5 -7 10 -30 10 -50 0 -36
-1 -38 -34 -38 -33 0 -34 1 -34 43 0 24 3 47 7 50 11 11 40 8 51 -5z m160 -40
l3 -48 -34 0 c-34 0 -35 1 -35 42 -1 53 4 60 36 56 25 -3 27 -7 30 -50z m147
44 c6 -4 10 -25 10 -47 0 -39 -1 -40 -34 -40 -32 0 -35 2 -36 35 -3 51 27 77
60 52z m1040 0 c6 -4 10 -25 10 -47 0 -38 -2 -40 -33 -43 -33 -3 -34 -3 -36
53 -1 31 9 45 34 45 8 0 20 -4 25 -8z m162 -44 l2 -48 -34 0 c-37 0 -40 5 -35
60 3 36 9 42 38 38 24 -3 27 -7 29 -50z m151 0 l3 -48 -35 0 -34 0 3 48 c1 26
3 48 4 50 0 2 13 2 29 0 25 -3 27 -7 30 -50z m156 36 c3 -9 6 -31 6 -50 0 -32
-2 -34 -35 -34 -35 0 -35 0 -35 43 0 24 3 47 7 50 12 13 51 7 57 -9z m-2156
-51 c3 -42 2 -43 -27 -43 -29 0 -31 2 -31 38 0 45 6 54 35 50 16 -2 21 -12 23
-45z m2340 0 c3 -42 2 -43 -27 -43 -29 0 -31 2 -31 38 0 45 6 54 35 50 16 -2
21 -12 23 -45z"/>
</g>
</svg>
