<?xml version="1.0" encoding="utf-8"?>
<!-- Generator: Adobe Illustrator 22.0.1, SVG Export Plug-In . SVG Version: 6.00 Build 0)  -->
<svg version="1.1" id="Layer_1" xmlns="http://www.w3.org/2000/svg" xmlns:xlink="http://www.w3.org/1999/xlink" x="0px" y="0px"
	 viewBox="0 0 51.9 13.7" style="enable-background:new 0 0 51.9 13.7;" xml:space="preserve">
<style type="text/css">
	.st0{fill:#434A4B;}
</style>
<path class="st0" d="M50.3,5.4l0-0.1c0,0,0.2-0.1,0.3-0.2c0,0-0.1,0.1-0.3,0.1c0,0-0.1-0.2-0.5-0.4c0,0-0.1-0.3-0.3-0.3
	s-0.3,0.1-0.3,0.3c0,0.1,0.1,0.4,0.3,0.1c0,0,0.1,0.1,0.1,0.3s0,0.2,0,0.2h-1.2V6h-0.6l-0.1-0.1c0,0,0.1-0.1,0.1-0.2
	c0-0.1-0.1-0.1-0.1-0.2s0-0.1,0-0.1s0-0.1-0.1-0.1s-0.1,0-0.1,0.1s0,0,0,0.1s-0.1,0.1-0.1,0.2c0,0.1,0.1,0.2,0.1,0.2L47.5,6h-2.8
	l-0.1-0.1c0,0,0.1-0.1,0.1-0.2c0-0.1-0.1-0.1-0.1-0.2s0-0.1,0-0.1s0-0.1-0.1-0.1s-0.1,0-0.1,0.1s0,0,0,0.1s-0.1,0.1-0.1,0.2
	c0,0.1,0.1,0.2,0.1,0.2L44.4,6h-2.8l-0.1-0.1c0,0,0.1-0.1,0.1-0.2c0-0.1-0.1-0.1-0.1-0.2s0-0.1,0-0.1s0-0.1-0.1-0.1s-0.1,0-0.1,0.1
	s0,0,0,0.1s-0.1,0.1-0.1,0.2c0,0.1,0.1,0.2,0.1,0.2L41.2,6h-2.8l-0.1-0.1c0,0,0.1-0.1,0.1-0.2c0-0.1-0.1-0.1-0.1-0.2s0-0.1,0-0.1
	s0-0.1-0.1-0.1s-0.1,0-0.1,0.1s0,0,0,0.1s-0.1,0.1-0.1,0.2c0,0.1,0.1,0.2,0.1,0.2L38.1,6h-3.7V5.1h-1.6l-0.1-0.1
	c0,0,0.1-0.1,0.1-0.2c0-0.1-0.1-0.1-0.1-0.2s0-0.1,0-0.1s0-0.1-0.1-0.1s-0.1,0-0.1,0.1s0,0,0,0.1s-0.1,0.1-0.1,0.2
	c0,0.1,0.1,0.2,0.1,0.2l-0.1,0.1h-2.8l-0.1-0.1c0,0,0.1-0.1,0.1-0.2c0-0.1-0.1-0.1-0.1-0.2s0-0.1,0-0.1s0-0.1-0.1-0.1
	s-0.1,0-0.1,0.1s0,0,0,0.1s-0.1,0.1-0.1,0.2c0,0.1,0.1,0.2,0.1,0.2l-0.1,0.1h-1.7c0,0,0.2-0.1,0.2-0.2c0-0.1-0.1-0.2-0.2-0.2
	c-0.2,0-0.2,0.2-0.2,0.2c-0.5-0.2-0.6-1.1-0.6-1.1l0.2-0.2V3.3L26.3,3V2.7l0.1-0.1l-0.2-0.2c0,0,0.1-0.2,0.1-0.4
	c0-0.2-0.1-0.4-0.1-0.4s0.2,0.1,0.4-0.2c0.2-0.3,0.1-0.6,0.1-0.6C26.2,1,26.1,1.1,26.1,1c0-0.1-0.1-0.1-0.1-0.1
	c-0.1,0-0.1,0.2-0.1,0.2s-0.1,0-0.1,0.1c0,0,0,0,0,0l-0.4-1.2c0,0,0,0,0,0c0,0,0,0,0,0l0-0.1l-0.1,0l0.1,0c0,0,0,0,0,0c0,0,0,0,0,0
	l0.4,1.3c0,0.4,0.2,0.8,0.2,0.8l-0.2,0.2l0.1,0.1V3L25,3.4v0.2l0.3,0.1c-0.2,1.1-0.6,1.1-0.6,1.1c0-0.1-0.1-0.2-0.2-0.2
	s-0.2,0-0.2,0.2c0,0.2,0.1,0.2,0.1,0.2h-1.7l-0.1-0.1c0,0,0.1-0.1,0.1-0.2c0-0.1-0.1-0.1-0.1-0.2s0-0.1,0-0.1s0-0.1-0.1-0.1
	s-0.1,0-0.1,0.1s0,0,0,0.1s-0.1,0.1-0.1,0.2c0,0.1,0.1,0.2,0.1,0.2l-0.1,0.1h-2.8l-0.1-0.1c0,0,0.1-0.1,0.1-0.2
	c0-0.1-0.1-0.1-0.1-0.2s0-0.1,0-0.1s0-0.1-0.1-0.1s-0.1,0-0.1,0.1s0,0,0,0.1s-0.1,0.1-0.1,0.2c0,0.1,0.1,0.2,0.1,0.2l-0.1,0.1h-1.6
	V6H14L14,5.9c0,0,0.1-0.1,0.1-0.2c0-0.1-0.1-0.1-0.1-0.2s0-0.1,0-0.1s0-0.1-0.1-0.1s-0.1,0-0.1,0.1s0,0,0,0.1s-0.1,0.1-0.1,0.2
	c0,0.1,0.1,0.2,0.1,0.2L13.7,6h-2.8l-0.1-0.1c0,0,0.1-0.1,0.1-0.2c0-0.1-0.1-0.1-0.1-0.2s0-0.1,0-0.1s0-0.1-0.1-0.1s-0.1,0-0.1,0.1
	s0,0,0,0.1s-0.1,0.1-0.1,0.2c0,0.1,0.1,0.2,0.1,0.2L10.6,6H7.8L7.7,5.9c0,0,0.1-0.1,0.1-0.2c0-0.1-0.1-0.1-0.1-0.2s0-0.1,0-0.1
	s0-0.1-0.1-0.1s-0.1,0-0.1,0.1s0,0,0,0.1S7.5,5.6,7.5,5.6c0,0.1,0.1,0.2,0.1,0.2L7.5,6H4.7L4.6,5.9c0,0,0.1-0.1,0.1-0.2
	c0-0.1-0.1-0.1-0.1-0.2s0-0.1,0-0.1s0-0.1-0.1-0.1s-0.1,0-0.1,0.1s0,0,0,0.1S4.4,5.6,4.4,5.6c0,0.1,0.1,0.2,0.1,0.2L4.4,6H3.8V5.4
	H2.6c0,0,0-0.1,0-0.2s0.1-0.3,0.1-0.3c0.2,0.3,0.3,0,0.3-0.1c0-0.1,0-0.3-0.3-0.3S2.3,4.8,2.3,4.8C2,5,1.9,5.2,1.9,5.2
	c-0.2,0-0.2-0.1-0.3-0.1c0.1,0.1,0.3,0.2,0.3,0.2l0,0.1H0.6v7.8h18.9V7.9H21v5.3h0.5V7.9h1.4v5.3h0.5V7.9h1.4v5.3h0.5V7.9h1.4v5.3
	h0.5V7.9h1.4v5.3h0.5V7.9h1.4v5.3h0.5V7.9h1.4v5.3h18.9V5.4H50.3z M2.1,5.3L2.1,5.3c0.2,0,0.4-0.1,0.4-0.1v0.1L2.1,5.3L2.1,5.3z
	 M2.9,12.6H1.6v-1.6c0,0,0.3-0.3,0.6-0.3s0.6,0.3,0.6,0.3V12.6z M2.9,9.4H1.6V7.8c0,0,0.3-0.3,0.6-0.3s0.6,0.3,0.6,0.3V9.4z
	 M6.8,12.4H5.3v-1.9c0,0,0.3-0.4,0.7-0.4s0.7,0.4,0.7,0.4V12.4z M6.8,9.6H5.3V7.7c0,0,0.3-0.4,0.7-0.4s0.7,0.4,0.7,0.4V9.6z
	 M9.9,12.4H8.5v-1.9c0,0,0.3-0.4,0.7-0.4s0.7,0.4,0.7,0.4V12.4z M9.9,9.6H8.5V7.7c0,0,0.3-0.4,0.7-0.4s0.7,0.4,0.7,0.4V9.6z
	 M13.1,12.4h-1.5v-1.9c0,0,0.3-0.4,0.7-0.4s0.7,0.4,0.7,0.4V12.4z M13.1,9.6h-1.5V7.7c0,0,0.3-0.4,0.7-0.4s0.7,0.4,0.7,0.4V9.6z
	 M16.2,12.4h-1.5v-1.9c0,0,0.3-0.4,0.7-0.4s0.7,0.4,0.7,0.4V12.4z M16.2,9.6h-1.5V7.7c0,0,0.3-0.4,0.7-0.4s0.7,0.4,0.7,0.4V9.6z
	 M37.4,12.4H36v-1.9c0,0,0.3-0.4,0.7-0.4s0.7,0.4,0.7,0.4V12.4z M37.4,9.6H36V7.7c0,0,0.3-0.4,0.7-0.4s0.7,0.4,0.7,0.4V9.6z
	 M40.6,12.4h-1.5v-1.9c0,0,0.3-0.4,0.7-0.4s0.7,0.4,0.7,0.4V12.4z M40.6,9.6h-1.5V7.7c0,0,0.3-0.4,0.7-0.4s0.7,0.4,0.7,0.4V9.6z
	 M43.7,12.4h-1.5v-1.9c0,0,0.3-0.4,0.7-0.4s0.7,0.4,0.7,0.4V12.4z M43.7,9.6h-1.5V7.7c0,0,0.3-0.4,0.7-0.4s0.7,0.4,0.7,0.4V9.6z
	 M46.9,12.4h-1.5v-1.9c0,0,0.3-0.4,0.7-0.4s0.7,0.4,0.7,0.4V12.4z M46.9,9.6h-1.5V7.7c0,0,0.3-0.4,0.7-0.4s0.7,0.4,0.7,0.4V9.6z
	 M49.7,5.3c0,0,0.2,0.1,0.3,0l0.1,0.1v0.1h-0.4V5.3z M50.6,12.6h-1.3v-1.6c0,0,0.3-0.3,0.6-0.3s0.6,0.3,0.6,0.3V12.6z M50.6,9.4
	h-1.3V7.8c0,0,0.3-0.3,0.6-0.3s0.6,0.3,0.6,0.3V9.4z"/>
</svg>
