<?xml version="1.0" encoding="utf-8"?>
<!-- Generator: Adobe Illustrator 22.0.1, SVG Export Plug-In . SVG Version: 6.00 Build 0)  -->
<svg version="1.1" id="Layer_1" xmlns="http://www.w3.org/2000/svg" xmlns:xlink="http://www.w3.org/1999/xlink" x="0px" y="0px"
	 viewBox="0 0 316 47.9" style="enable-background:new 0 0 316 47.9;" xml:space="preserve">
<style type="text/css">
	.st0{fill:#434A4B;}
	.st1{fill:#554A9E;}
	.st2{fill:#088CBC;}
</style>
<g>
	<g>
		<path class="st0" d="M146.9,15.8l0.1-0.4c0,0,0.6-0.2,0.8-0.6c0,0-0.2,0.4-0.8,0.4c0,0-0.4-0.6-1.3-1.1c0,0-0.2-0.8-0.9-0.8
			c-0.8,0-0.8,0.4-0.8,0.8s0.2,1.1,0.8,0.4c0,0,0.2,0.4,0.2,0.8s0,0.6,0,0.6h-3.6v1.7h-1.7l-0.3-0.3c0,0,0.2-0.2,0.2-0.7
			c0-0.3-0.3-0.3-0.3-0.6s0.1-0.3,0.1-0.4c0-0.1-0.1-0.2-0.2-0.2s-0.2,0.1-0.2,0.2c0,0.1,0.1,0.1,0.1,0.4s-0.3,0.3-0.3,0.6
			c0,0.4,0.2,0.7,0.2,0.7l-0.3,0.3h-8.1l-0.3-0.3c0,0,0.2-0.2,0.2-0.7c0-0.3-0.3-0.3-0.3-0.6s0.1-0.3,0.1-0.4c0-0.1-0.1-0.2-0.2-0.2
			s-0.2,0.1-0.2,0.2c0,0.1,0.1,0.1,0.1,0.4s-0.3,0.3-0.3,0.6c0,0.4,0.2,0.7,0.2,0.7l-0.3,0.3h-8.3l-0.3-0.3c0,0,0.2-0.2,0.2-0.7
			c0-0.3-0.3-0.3-0.3-0.6s0.1-0.3,0.1-0.4c0-0.1-0.1-0.2-0.2-0.2c-0.1,0-0.2,0.1-0.2,0.2c0,0.1,0.1,0.1,0.1,0.4s-0.3,0.3-0.3,0.6
			c0,0.4,0.2,0.7,0.2,0.7l-0.3,0.3h-8.2l-0.3-0.3c0,0,0.2-0.2,0.2-0.7c0-0.3-0.3-0.3-0.3-0.6s0.1-0.3,0.1-0.4c0-0.1-0.1-0.2-0.2-0.2
			c-0.1,0-0.2,0.1-0.2,0.2c0,0.1,0.1,0.1,0.1,0.4s-0.3,0.3-0.3,0.6c0,0.4,0.2,0.7,0.2,0.7l-0.3,0.3h-10.7v-2.7h-4.8l-0.3-0.3
			c0,0,0.2-0.2,0.2-0.7c0-0.3-0.3-0.3-0.3-0.6s0.1-0.3,0.1-0.4s-0.1-0.2-0.2-0.2c-0.1,0-0.2,0.1-0.2,0.2s0.1,0.1,0.1,0.4
			s-0.3,0.3-0.3,0.6c0,0.4,0.2,0.7,0.2,0.7l-0.3,0.3h-8.2l-0.3-0.3c0,0,0.2-0.2,0.2-0.7c0-0.3-0.3-0.3-0.3-0.6s0.1-0.3,0.1-0.4
			s-0.1-0.2-0.2-0.2c-0.1,0-0.2,0.1-0.2,0.2S86,13,86,13.3s-0.3,0.3-0.3,0.6c0,0.4,0.2,0.7,0.2,0.7l-0.3,0.3h-5.1
			c0,0,0.5-0.2,0.5-0.5c0-0.4-0.2-0.7-0.7-0.7c-0.5,0-0.5,0.7-0.5,0.7C78.3,13.6,78,11,78,11l0.7-0.5V9.7l-2.4-0.9V7.9l0.4-0.4
			L76,6.8c0,0,0.2-0.7,0.2-1.3c0-0.5-0.4-1.3-0.4-1.3s0.5,0.2,1.1-0.7c0.5-0.9,0.4-1.8,0.4-1.8C76.2,3,75.8,3.2,75.8,3
			c0-0.2-0.2-0.4-0.4-0.4c-0.4,0-0.4,0.7-0.4,0.7s-0.2,0-0.2,0.4c0,0,0,0.1,0,0.1l-1.1-3.4c0,0,0-0.1,0-0.1c0-0.1,0-0.1-0.1-0.1
			L73.8,0l-0.4,0.1l0.2,0.1c0,0,0,0,0,0.1c0,0.1,0,0.1,0.1,0.1l1.3,4c0.1,1.2,0.5,2.4,0.5,2.4l-0.5,0.7l0.4,0.2v1.1l-2.5,1.1v0.5
			l0.9,0.4c-0.5,3.3-1.6,3.3-1.6,3.3c0-0.4-0.2-0.5-0.5-0.5c-0.4,0-0.7,0-0.7,0.5c0,0.5,0.4,0.7,0.4,0.7h-4.9l-0.3-0.3
			c0,0,0.2-0.2,0.2-0.7c0-0.3-0.3-0.3-0.3-0.6s0.1-0.3,0.1-0.4s-0.1-0.2-0.2-0.2c-0.1,0-0.2,0.1-0.2,0.2s0.1,0.1,0.1,0.4
			s-0.3,0.3-0.3,0.6c0,0.4,0.2,0.7,0.2,0.7l-0.3,0.3H57l-0.3-0.3c0,0,0.2-0.2,0.2-0.7c0-0.3-0.3-0.3-0.3-0.6s0.1-0.3,0.1-0.4
			s-0.1-0.2-0.2-0.2c-0.1,0-0.2,0.1-0.2,0.2s0.1,0.1,0.1,0.4s-0.3,0.3-0.3,0.6c0,0.4,0.2,0.7,0.2,0.7l-0.3,0.3h-4.8v2.7H40.5
			l-0.3-0.3c0,0,0.2-0.2,0.2-0.7c0-0.3-0.3-0.3-0.3-0.6s0.1-0.3,0.1-0.4c0-0.1-0.1-0.2-0.2-0.2s-0.2,0.1-0.2,0.2
			c0,0.1,0.1,0.1,0.1,0.4s-0.3,0.3-0.3,0.6c0,0.4,0.2,0.7,0.2,0.7l-0.3,0.3h-8.2l-0.3-0.3c0,0,0.2-0.2,0.2-0.7
			c0-0.3-0.3-0.3-0.3-0.6s0.1-0.3,0.1-0.4c0-0.1-0.1-0.2-0.2-0.2c-0.1,0-0.2,0.1-0.2,0.2c0,0.1,0.1,0.1,0.1,0.4s-0.3,0.3-0.3,0.6
			c0,0.4,0.2,0.7,0.2,0.7l-0.3,0.3h-8.3l-0.3-0.3c0,0,0.2-0.2,0.2-0.7c0-0.3-0.3-0.3-0.3-0.6s0.1-0.3,0.1-0.4c0-0.1-0.1-0.2-0.2-0.2
			s-0.2,0.1-0.2,0.2c0,0.1,0.1,0.1,0.1,0.4s-0.3,0.3-0.3,0.6c0,0.4,0.2,0.7,0.2,0.7l-0.3,0.3h-8.1l-0.3-0.3c0,0,0.2-0.2,0.2-0.7
			c0-0.3-0.3-0.3-0.3-0.6s0.1-0.3,0.1-0.4c0-0.1-0.1-0.2-0.2-0.2c-0.1,0-0.2,0.1-0.2,0.2c0,0.1,0.1,0.1,0.1,0.4s-0.3,0.3-0.3,0.6
			c0,0.4,0.2,0.7,0.2,0.7l-0.3,0.3h-1.7v-1.7H6.9c0,0,0-0.2,0-0.6s0.2-0.8,0.2-0.8c0.6,0.8,0.8,0,0.8-0.4s0-0.8-0.8-0.8
			s-0.9,0.8-0.9,0.8c-0.9,0.6-1.3,1.1-1.3,1.1c-0.5,0-0.7-0.3-0.8-0.4c0.2,0.4,0.8,0.6,0.8,0.6l0.1,0.4H1v23h55.6V23.3h4.2v15.5h1.6
			V23.3h4.1v15.5h1.6V23.3h4.1v15.5h1.6V23.3H78v15.5h1.6V23.3h4.1v15.5h1.6V23.3h4.1v15.5h1.6V23.3h4.1v15.5h55.6v-23H146.9z
			 M5.4,15.7l0.2-0.2c0.4,0.2,0.9,0,0.9,0v0.4H5.4V15.7z M7.6,36.9H3.8v-4.8c0,0,0.8-0.9,1.9-0.9s1.9,0.9,1.9,0.9V36.9z M7.6,27.6
			H3.8v-4.8c0,0,0.8-0.9,1.9-0.9s1.9,0.9,1.9,0.9V27.6z M19.2,36.5h-4.3v-5.5c0,0,0.9-1,2.2-1s2.2,1,2.2,1V36.5z M19.2,28.1h-4.3
			v-5.5c0,0,0.9-1,2.2-1s2.2,1,2.2,1V28.1z M28.4,36.5h-4.3v-5.5c0,0,0.9-1,2.2-1c1.3,0,2.2,1,2.2,1V36.5z M28.4,28.1h-4.3v-5.5
			c0,0,0.9-1,2.2-1c1.3,0,2.2,1,2.2,1V28.1z M37.7,36.5h-4.3v-5.5c0,0,0.9-1,2.2-1c1.3,0,2.2,1,2.2,1V36.5z M37.7,28.1h-4.3v-5.5
			c0,0,0.9-1,2.2-1c1.3,0,2.2,1,2.2,1V28.1z M46.9,36.5h-4.3v-5.5c0,0,0.9-1,2.2-1s2.2,1,2.2,1V36.5z M46.9,28.1h-4.3v-5.5
			c0,0,0.9-1,2.2-1s2.2,1,2.2,1V28.1z M109.2,36.5h-4.3v-5.5c0,0,0.9-1,2.2-1c1.3,0,2.2,1,2.2,1V36.5z M109.2,28.1h-4.3v-5.5
			c0,0,0.9-1,2.2-1c1.3,0,2.2,1,2.2,1V28.1z M118.4,36.5H114v-5.5c0,0,0.9-1,2.2-1s2.2,1,2.2,1V36.5z M118.4,28.1H114v-5.5
			c0,0,0.9-1,2.2-1s2.2,1,2.2,1V28.1z M127.7,36.5h-4.3v-5.5c0,0,0.9-1,2.2-1c1.3,0,2.2,1,2.2,1V36.5z M127.7,28.1h-4.3v-5.5
			c0,0,0.9-1,2.2-1c1.3,0,2.2,1,2.2,1V28.1z M136.9,36.5h-4.3v-5.5c0,0,0.9-1,2.2-1c1.3,0,2.2,1,2.2,1V36.5z M136.9,28.1h-4.3v-5.5
			c0,0,0.9-1,2.2-1c1.3,0,2.2,1,2.2,1V28.1z M145.3,15.5c0,0,0.6,0.2,0.9,0l0.2,0.2v0.2h-1.1V15.5z M147.9,36.9h-3.8v-4.8
			c0,0,0.8-0.9,1.9-0.9s1.9,0.9,1.9,0.9V36.9z M147.9,27.6h-3.8v-4.8c0,0,0.8-0.9,1.9-0.9s1.9,0.9,1.9,0.9V27.6z"/>
		<g>
			<g>
				<rect x="167.4" y="28.1" class="st1" width="2.3" height="19.1"/>
			</g>
			<g>
				<rect x="167.4" y="9.1" class="st2" width="2.3" height="19.1"/>
			</g>
		</g>
	</g>
	<g>
		<path class="st0" d="M190.7,10.3h5c1.5,0,3.2,0.5,3.2,3.6c0,3.6-1.9,3.8-3.2,3.8c-0.6,0-2.7-0.3-2.8-0.3v4.6h-2.2V10.3z
			 M195.5,15.8c0.7,0,1.2-0.4,1.2-1.8c0-1.4-0.6-1.6-1.2-1.6h-2.6v3.4H195.5z"/>
		<path class="st0" d="M203.7,13.5c2.9,0,3.9,1.1,3.9,4.4c0,3.2-0.9,4.2-3.9,4.2c-2.9,0-3.9-1.2-3.9-4.2
			C199.8,14.5,200.8,13.5,203.7,13.5z M203.7,20.3c1.3,0,1.6-0.2,1.6-2.4c0-2.4-0.3-2.6-1.6-2.6c-1.3,0-1.6,0.3-1.6,2.6
			C202,20.1,202.5,20.3,203.7,20.3z"/>
		<path class="st0" d="M208.6,13.6h1.9l0.4,1.1c0.6-0.6,1.4-1.2,2.4-1.2c0.4,0,0.7,0,0.9,0.1v2.2c-0.2,0-0.7,0-1.2,0
			c-0.9,0-1.6,0.2-2.2,0.9v5.4h-2.2V13.6z"/>
		<path class="st0" d="M214.6,14l1.4-0.5l0.4-2.4h1.9v2.4h1.9v1.7h-1.9v3.4c0,1.3,0.3,1.5,0.7,1.7c0,0,1,0.3,1.1,0.3v1.4h-2
			c-1.3,0-2.1-0.8-2.1-3v-3.8h-1.4V14z"/>
		<path class="st0" d="M220.6,19.1c0-1.2,0.7-2.3,2.5-2.3c0,0,2.5,0,2.5,0c0,0,0-0.5,0-0.5c0-0.9-0.4-1-1.1-1
			c-0.7,0-2.9,0.1-3.6,0.2V14c1.1-0.4,2.3-0.6,3.9-0.6c1.8,0,3.1,0.6,3.1,2.7v5.9h-1.8l-0.5-0.9c-0.1,0.2-1.3,1.1-2.6,1
			c-1.6,0-2.4-1.2-2.4-2.3V19.1z M223.6,20.4c0.9,0,2-0.7,2-0.7v-1.6l-2.1,0.2c-0.6,0.1-0.7,0.5-0.7,0.9v0.4
			C222.8,20.3,223.2,20.4,223.6,20.4z"/>
		<path class="st0" d="M228.8,9.5h2.2v9.2c0,1.2,0.3,1.5,0.7,1.7c0,0,1,0.3,1.1,0.3v1.4H231c-1.4,0-2.2-0.8-2.2-3V9.5z"/>
		<path class="st0" d="M239.9,13.4c0.7,0,1.8,0.2,2.6,0.6V9.5h2.2v12.6h-1.8l-0.4-0.9c-0.5,0.4-1.6,1-2.6,1c-2.1,0-2.8-1.7-2.8-4.3
			C237.1,15.1,237.5,13.4,239.9,13.4z M240.4,20.2c0.8,0,1.5-0.2,2-0.5v-4.2c-0.6-0.2-1.2-0.3-2-0.3c-0.7,0-1.1,0.4-1.1,2.6
			C239.3,19.7,239.7,20.2,240.4,20.2z"/>
		<path class="st0" d="M249.4,13.5c2.5,0,3.6,0.3,3.6,3.1c0,1.5-0.8,2.1-2.4,2.1h-2.7c0,1.5,0.6,1.6,1.8,1.6c1.3,0,1.9,0,3.1-0.2
			v1.5c-1.2,0.4-3,0.4-4.4,0.4c-2.2,0-2.8-1.3-2.8-4.4C245.7,14.1,246.7,13.5,249.4,13.5z M250,17.1c0.5,0,0.7-0.2,0.7-0.6
			c0-1.1-0.2-1.3-1.2-1.3c-1.2,0-1.6,0.1-1.6,1.9H250z"/>
		<path class="st0" d="M257.1,14l1.4-0.5l0.4-2.4h1.9v2.4h1.9v1.7h-1.9v3.4c0,1.3,0.3,1.5,0.7,1.7c0,0,1,0.3,1.1,0.3v1.4h-2
			c-1.3,0-2.1-0.8-2.1-3v-3.8h-1.4V14z"/>
		<path class="st0" d="M263.3,13.6h1.9l0.4,1.1c0.6-0.6,1.4-1.2,2.4-1.2c0.4,0,0.7,0,0.9,0.1v2.2c-0.2,0-0.7,0-1.2,0
			c-0.9,0-1.6,0.2-2.2,0.9v5.4h-2.2V13.6z"/>
		<path class="st0" d="M269.4,19.1c0-1.2,0.7-2.3,2.5-2.3c0,0,2.5,0,2.5,0c0,0,0-0.5,0-0.5c0-0.9-0.4-1-1.1-1
			c-0.7,0-2.9,0.1-3.6,0.2V14c1.1-0.4,2.3-0.6,3.9-0.6c1.8,0,3.1,0.6,3.1,2.7v5.9h-1.8l-0.5-0.9c-0.1,0.2-1.3,1.1-2.6,1
			c-1.6,0-2.4-1.2-2.4-2.3V19.1z M272.5,20.4c0.9,0,2-0.7,2-0.7v-1.6l-2.1,0.2c-0.6,0.1-0.7,0.5-0.7,0.9v0.4
			C271.7,20.3,272.1,20.4,272.5,20.4z M273.9,10.2h2l-2,2.2h-1.5L273.9,10.2z"/>
		<path class="st0" d="M277.7,13.6h1.8l0.4,0.9c0.8-0.5,1.4-1,2.6-1c1.1,0,1.9,0.4,2.2,1.1c0.8-0.6,1.7-1.1,3.1-1.1
			c1.9,0,2.5,1.3,2.5,3v5.6h-2.2v-5.7c0-0.8-0.4-1.2-0.9-1.2c-0.9,0-1.5,0.2-2.1,0.7c0,0.1,0,0.4,0,0.5v5.6h-2.2v-5.7
			c0-0.8-0.4-1.2-0.9-1.2c-0.9,0-1.3,0.2-2,0.7v6.1h-2.2V13.6z"/>
		<path class="st0" d="M291.2,10.9c0-0.2,0.1-0.4,0.4-0.4h1.7c0.2,0,0.4,0.2,0.4,0.4v1.4c0,0.2-0.1,0.4-0.4,0.4h-1.7
			c-0.2,0-0.4-0.1-0.4-0.4V10.9z M291.3,13.6h2.2v8.5h-2.2V13.6z"/>
		<path class="st0" d="M294.2,14l1.4-0.5l0.4-2.4h1.9v2.4h1.9v1.7h-1.9v3.4c0,1.3,0.3,1.5,0.7,1.7c0,0,1,0.3,1.1,0.3v1.4h-2
			c-1.3,0-2.1-0.8-2.1-3v-3.8h-1.4V14z"/>
		<path class="st0" d="M304.1,13.5c2.5,0,3.6,0.3,3.6,3.1c0,1.5-0.8,2.1-2.4,2.1h-2.7c0,1.5,0.6,1.6,1.8,1.6c1.3,0,1.9,0,3.1-0.2
			v1.5c-1.2,0.4-3,0.4-4.4,0.4c-2.2,0-2.8-1.3-2.8-4.4C300.3,14.1,301.4,13.5,304.1,13.5z M304.7,17.1c0.5,0,0.7-0.2,0.7-0.6
			c0-1.1-0.2-1.3-1.2-1.3c-1.2,0-1.6,0.1-1.6,1.9H304.7z"/>
		<path class="st0" d="M308.3,15.8c0-1.3,0.6-2.3,2.2-2.3c1.6,0,3.9,0.1,4.5,0.4v1.4h-3.9c-0.6,0-0.7,0.2-0.7,0.6v0.4
			c0,0.5,0.3,0.6,0.7,0.6h2c1.6,0,2.3,1,2.3,2.2v0.9c0,1.7-1.1,2.2-2.1,2.2c-1.6,0-4.1-0.1-4.7-0.5v-1.4h4c0.2,0,0.6,0,0.6-0.5v-0.4
			c0-0.4-0.1-0.6-0.6-0.6h-2c-1.5,0-2.4-0.6-2.4-2.3V15.8z"/>
		<path class="st0" d="M192.5,32.8l1.5,5.9c0.2,0.7,0.7,0.6,0.9,0.6l1.7-6.6h2.3L195.9,44l-1.2,1.6h-1.6l1.2-4.3
			c-1.2,0-2.1-0.6-2.5-2.2l-1.7-6.3H192.5z"/>
		<path class="st0" d="M203,35c0-1.3,0.6-2.3,2.2-2.3c1.6,0,3.9,0.1,4.5,0.4v1.4h-3.9c-0.6,0-0.7,0.2-0.7,0.6v0.4
			c0,0.5,0.3,0.6,0.7,0.6h2c1.6,0,2.3,1,2.3,2.2v0.9c0,1.7-1.1,2.2-2.1,2.2c-1.6,0-4.1-0.1-4.7-0.5v-1.4h4c0.2,0,0.6,0,0.6-0.5v-0.4
			c0-0.4-0.1-0.6-0.6-0.6h-2c-1.5,0-2.4-0.6-2.4-2.3V35z"/>
		<path class="st0" d="M214.6,32.7c2.5,0,3.6,0.3,3.6,3.1c0,1.5-0.8,2.1-2.4,2.1h-2.7c0,1.5,0.6,1.6,1.8,1.6c1.3,0,1.9,0,3.1-0.2
			v1.5c-1.2,0.4-3,0.4-4.4,0.4c-2.2,0-2.8-1.3-2.8-4.4C210.9,33.3,211.9,32.7,214.6,32.7z M215.3,36.3c0.5,0,0.7-0.2,0.7-0.6
			c0-1.1-0.2-1.3-1.2-1.3c-1.2,0-1.6,0.1-1.6,1.9H215.3z"/>
		<path class="st0" d="M219.1,32.8h1.9l0.4,1.1c0.6-0.6,1.4-1.2,2.4-1.2c0.4,0,0.7,0,0.9,0.1V35c-0.2,0-0.7,0-1.2,0
			c-0.9,0-1.6,0.2-2.2,0.9v5.4h-2.2V32.8z"/>
		<path class="st0" d="M227.4,32.8l1.9,5.9l1.9-5.9h2.4l-3.1,8.5h-2.5l-3-8.5H227.4z"/>
		<path class="st0" d="M234,30.1c0-0.2,0.1-0.4,0.4-0.4h1.7c0.2,0,0.4,0.2,0.4,0.4v1.4c0,0.2-0.1,0.4-0.4,0.4h-1.7
			c-0.2,0-0.4-0.1-0.4-0.4V30.1z M234.1,32.8h2.2v8.5h-2.2V32.8z"/>
		<path class="st0" d="M240.2,32.7c0.8,0,2.5,0,3.9,0.5v1.4c0,0-1.5-0.1-3-0.1c-1,0-1.5,0.1-1.5,2.6c0,2.2,0.4,2.5,1.5,2.5
			c1.5,0,3.1-0.1,3.1-0.1v1.4c-1.2,0.6-2.7,0.5-4,0.5c-1.6,0-2.8-0.8-2.8-4.3C237.4,33.5,238.5,32.7,240.2,32.7z"/>
		<path class="st0" d="M244.9,30.1c0-0.2,0.1-0.4,0.4-0.4h1.7c0.2,0,0.4,0.2,0.4,0.4v1.4c0,0.2-0.1,0.4-0.4,0.4h-1.7
			c-0.2,0-0.4-0.1-0.4-0.4V30.1z M245,32.8h2.2v8.5H245V32.8z"/>
		<path class="st0" d="M252.1,32.7c2.9,0,3.9,1.1,3.9,4.4c0,3.2-0.9,4.2-3.9,4.2c-2.9,0-3.9-1.2-3.9-4.2
			C248.3,33.7,249.3,32.7,252.1,32.7z M252.1,39.6c1.3,0,1.6-0.2,1.6-2.4c0-2.4-0.3-2.6-1.6-2.6c-1.3,0-1.6,0.3-1.6,2.6
			C250.5,39.3,250.9,39.6,252.1,39.6z"/>
		<path class="st0" d="M256.8,35c0-1.3,0.6-2.3,2.2-2.3c1.6,0,3.9,0.1,4.5,0.4v1.4h-3.9c-0.6,0-0.7,0.2-0.7,0.6v0.4
			c0,0.5,0.3,0.6,0.7,0.6h2c1.6,0,2.3,1,2.3,2.2v0.9c0,1.7-1.1,2.2-2.1,2.2c-1.6,0-4.1-0.1-4.7-0.5v-1.4h4c0.2,0,0.6,0,0.6-0.5v-0.4
			c0-0.4-0.1-0.6-0.6-0.6h-2c-1.5,0-2.4-0.6-2.4-2.3V35z"/>
	</g>
</g>
</svg>
